<svg width="123" height="52" viewBox="0 0 123 52" fill="none" xmlns="http://www.w3.org/2000/svg">
<g filter="url(#filter0_d_163_222)">
<path d="M61.5 0.5C77.3328 0.5 91.6444 2.95596 101.979 6.91016C107.149 8.88794 111.298 11.2316 114.146 13.8076C116.993 16.3837 118.5 19.1528 118.5 22C118.5 24.8472 116.993 27.6163 114.146 30.1924C111.298 32.7684 107.149 35.1121 101.979 37.0898C91.6444 41.044 77.3328 43.5 61.5 43.5C45.6672 43.5 31.3556 41.044 21.0205 37.0898C15.8513 35.1121 11.7023 32.7684 8.85449 30.1924C6.00668 27.6163 4.5 24.8472 4.5 22C4.5 19.1528 6.00668 16.3837 8.85449 13.8076C11.7023 11.2316 15.8513 8.88794 21.0205 6.91016C31.3556 2.95596 45.6672 0.5 61.5 0.5ZM32.8652 32.5H36.835V18.3193L44.7832 32.248L44.9268 32.5H49.6221V11.9746H45.6523V26.499L37.5674 12.2285L37.4238 11.9746H32.8652V32.5ZM51.4971 32.5H65.4219V28.7773H55.4678V24.0303H64.8721V20.3896H55.4678V15.6973H65.2021V11.9746H51.4971V32.5ZM65.9258 12.6025L71.0957 32.1279L71.1943 32.5H75.4326L75.5283 32.123L78.6738 19.7812L81.8193 32.123L81.916 32.5H86.1533L86.252 32.1289L91.4502 12.6035L91.6172 11.9746H87.3564L87.2637 12.3564L83.9795 25.8027L80.6719 12.3555L80.5791 11.9746H76.7695L76.6758 12.3555L73.3662 25.8076L70.0576 12.3555L69.9639 11.9746H65.7598L65.9258 12.6025ZM69.1797 12.9746L72.8809 28.0215H73.8525L77.5537 12.9746H79.7949L83.4961 28.0215H84.4678L88.1426 12.9746H90.3164L85.3848 31.5H82.6934L79.1592 17.6318H78.1895L74.6553 31.5H71.9639L67.0586 12.9746H69.1797ZM64.2021 12.9746V14.6973H54.4678V21.3896H63.8721V23.0303H54.4678V29.7773H64.4219V31.5H52.4971V12.9746H64.2021ZM36.8408 12.9746L45.7178 28.6436L46.6523 30.2949V12.9746H48.6221V31.5H45.5078L36.7695 16.1875L35.835 14.5498V31.5H33.8652V12.9746H36.8408Z" stroke="white"/>
</g>
<defs>
<filter id="filter0_d_163_222" x="0" y="0" width="123" height="52" filterUnits="userSpaceOnUse" color-interpolation-filters="sRGB">
<feFlood flood-opacity="0" result="BackgroundImageFix"/>
<feColorMatrix in="SourceAlpha" type="matrix" values="0 0 0 0 0 0 0 0 0 0 0 0 0 0 0 0 0 0 127 0" result="hardAlpha"/>
<feOffset dy="4"/>
<feGaussianBlur stdDeviation="2"/>
<feComposite in2="hardAlpha" operator="out"/>
<feColorMatrix type="matrix" values="0 0 0 0 0 0 0 0 0 0 0 0 0 0 0 0 0 0 0.25 0"/>
<feBlend mode="normal" in2="BackgroundImageFix" result="effect1_dropShadow_163_222"/>
<feBlend mode="normal" in="SourceGraphic" in2="effect1_dropShadow_163_222" result="shape"/>
</filter>
</defs>
</svg>
