<svg width="800" height="21" viewBox="0 0 800 21" fill="none" xmlns="http://www.w3.org/2000/svg">
<path d="M0 0H10.0157V10.0157H0V0Z" fill="#0F0F0F"/>
<path d="M121.438 0H131.454V10.0157H121.438V0Z" fill="#0F0F0F"/>
<path d="M506.416 0H516.432V10.0157H506.416V0Z" fill="#0F0F0F"/>
<path d="M60.7192 0H70.7349V10.0157H60.7192V0Z" fill="#0F0F0F"/>
<path d="M445.697 0H455.713V10.0157H445.697V0Z" fill="#0F0F0F"/>
<path d="M182.163 0H192.178V10.0157H182.163V0Z" fill="#0F0F0F"/>
<path d="M567.136 0H577.151V10.0157H567.136V0Z" fill="#0F0F0F"/>
<path d="M283.568 0H293.584V10.0157H283.568V0Z" fill="#0F0F0F"/>
<path d="M668.546 0H678.562V10.0157H668.546V0Z" fill="#0F0F0F"/>
<path d="M364.32 0H374.962V10.0157H364.32V0Z" fill="#0F0F0F"/>
<path d="M749.298 0H759.94V10.0157H749.298V0Z" fill="#0F0F0F"/>
<path d="M60.7192 20.0332L50.7036 20.0332V10.0175L60.7192 10.0175V20.0332Z" fill="#0F0F0F"/>
<path d="M445.697 20.0332L435.682 20.0332V10.0175L445.697 10.0175V20.0332Z" fill="#0F0F0F"/>
<path d="M182.163 20.0332L172.147 20.0332V10.0175L182.163 10.0175V20.0332Z" fill="#0F0F0F"/>
<path d="M567.136 20.0332L557.12 20.0332V10.0175L567.136 10.0175V20.0332Z" fill="#0F0F0F"/>
<path d="M283.568 20.0332L273.552 20.0332V10.0175L283.568 10.0175V20.0332Z" fill="#0F0F0F"/>
<path d="M668.546 20.0332L658.53 20.0332V10.0175L668.546 10.0175V20.0332Z" fill="#0F0F0F"/>
<path d="M364.32 20.0332L354.305 20.0332V10.0175L364.32 10.0175V20.0332Z" fill="#0F0F0F"/>
<path d="M749.298 20.0332L739.283 20.0332V10.0175L749.298 10.0175V20.0332Z" fill="#0F0F0F"/>
<path d="M121.438 20.0332L111.423 20.0332L111.423 10.0175L121.438 10.0175V20.0332Z" fill="#0F0F0F"/>
<path d="M506.416 20.0332L496.401 20.0332V10.0175L506.416 10.0175V20.0332Z" fill="#0F0F0F"/>
<path d="M242.877 20.0332L232.861 20.0332V10.0175L242.877 10.0175V20.0332Z" fill="#0F0F0F"/>
<path d="M627.86 20.0332L617.844 20.0332V10.0175L627.86 10.0175V20.0332Z" fill="#0F0F0F"/>
<path d="M344.292 20.0332L334.276 20.0332V10.0175L344.292 10.0175V20.0332Z" fill="#0F0F0F"/>
<path d="M729.265 20.0332L719.249 20.0332V10.0175L729.265 10.0175V20.0332Z" fill="#0F0F0F"/>
<path d="M10.0166 10.0166H20.0323V20.0323H10.0166V10.0166Z" fill="#0F0F0F"/>
<path d="M394.995 10.0166H405.01V20.0323H394.995V10.0166Z" fill="#0F0F0F"/>
<path d="M131.455 10.0166H142.097V20.0323H131.455V10.0166Z" fill="#0F0F0F"/>
<path d="M516.433 10.0166H527.075V20.0323H516.433V10.0166Z" fill="#0F0F0F"/>
<path d="M70.7358 10.0166H80.7515V20.0323H70.7358V10.0166Z" fill="#0F0F0F"/>
<path d="M455.709 10.0166H465.725V20.0323H455.709V10.0166Z" fill="#0F0F0F"/>
<path d="M192.174 10.0166H202.816V20.0323H192.174V10.0166Z" fill="#0F0F0F"/>
<path d="M577.152 10.0166H587.794V20.0323H577.152V10.0166Z" fill="#0F0F0F"/>
<path d="M293.584 10.0166H303.6V20.0323H293.584V10.0166Z" fill="#0F0F0F"/>
<path d="M678.562 10.0166H688.578V20.0323H678.562V10.0166Z" fill="#0F0F0F"/>
<path d="M374.961 10.0166H384.977V20.0323H374.961V10.0166Z" fill="#0F0F0F"/>
<path d="M759.939 10.0166H769.955V20.0323H759.939V10.0166Z" fill="#0F0F0F"/>
<path d="M779.968 10.0166H789.983V20.0323H779.968V10.0166Z" fill="#0F0F0F"/>
<path d="M50.7026 10.6411L40.687 10.6411V0.625452L50.7026 0.625454V10.6411Z" fill="#0F0F0F"/>
<path d="M435.681 10.6411L425.665 10.6411V0.625452L435.681 0.625454V10.6411Z" fill="#0F0F0F"/>
<path d="M172.141 10.6411L162.125 10.6411V0.625452L172.141 0.625454V10.6411Z" fill="#0F0F0F"/>
<path d="M557.124 10.6411L547.108 10.6411V0.625452L557.124 0.625454V10.6411Z" fill="#0F0F0F"/>
<path d="M273.556 10.6411L263.54 10.6411V0.625452L273.556 0.625454V10.6411Z" fill="#0F0F0F"/>
<path d="M658.529 10.6411L648.514 10.6411V0.625452L658.529 0.625454V10.6411Z" fill="#0F0F0F"/>
<path d="M354.304 10.6411L344.288 10.6411V0.625452L354.304 0.625454V10.6411Z" fill="#0F0F0F"/>
<path d="M739.282 10.6411L729.266 10.6411V0.625452L739.282 0.625454V10.6411Z" fill="#0F0F0F"/>
<path d="M111.427 10.6411L101.411 10.6411L101.411 0.625452L111.427 0.625454V10.6411Z" fill="#0F0F0F"/>
<path d="M496.4 10.6411L486.384 10.6411V0.625452L496.4 0.625454V10.6411Z" fill="#0F0F0F"/>
<path d="M232.865 10.6411L222.85 10.6411V0.625452L232.865 0.625454V10.6411Z" fill="#0F0F0F"/>
<path d="M617.838 10.6411L607.823 10.6411V0.625452L617.838 0.625454V10.6411Z" fill="#0F0F0F"/>
<path d="M334.27 10.6411L324.255 10.6411V0.625452L334.27 0.625454V10.6411Z" fill="#0F0F0F"/>
<path d="M719.249 10.6411L709.233 10.6411V0.625452L719.249 0.625454V10.6411Z" fill="#0F0F0F"/>
<path d="M20.0332 0H30.6748V10.0157H20.0332V0Z" fill="#0F0F0F"/>
<path d="M405.006 0H415.648V10.0157H405.006V0Z" fill="#0F0F0F"/>
<path d="M142.096 0H152.112V10.0157H142.096V0Z" fill="#0F0F0F"/>
<path d="M527.074 0H537.09V10.0157H527.074V0Z" fill="#0F0F0F"/>
<path d="M242.877 0H252.893V10.0157H242.877V0Z" fill="#0F0F0F"/>
<path d="M627.86 0H637.875V10.0157H627.86V0Z" fill="#0F0F0F"/>
<path d="M80.7524 0H91.3941V10.0157H80.7524V0Z" fill="#0F0F0F"/>
<path d="M465.73 0H476.372V10.0157H465.73V0Z" fill="#0F0F0F"/>
<path d="M202.82 0H212.836V10.0157H202.82V0Z" fill="#0F0F0F"/>
<path d="M587.793 0H597.809V10.0157H587.793V0Z" fill="#0F0F0F"/>
<path d="M303.601 0H314.243V10.0157H303.601V0Z" fill="#0F0F0F"/>
<path d="M688.574 0H699.216V10.0157H688.574V0Z" fill="#0F0F0F"/>
<path d="M384.978 0H394.994V10.0157H384.978V0Z" fill="#0F0F0F"/>
<path d="M769.956 0H779.972V10.0157H769.956V0Z" fill="#0F0F0F"/>
<path d="M789.984 0H800V10.0157H789.984V0Z" fill="#0F0F0F"/>
<path d="M40.6909 20.0332L30.6753 20.0332V10.0175L40.6909 10.0175V20.0332Z" fill="#0F0F0F"/>
<path d="M425.664 20.0332L415.648 20.0332V10.0175L425.664 10.0175V20.0332Z" fill="#0F0F0F"/>
<path d="M162.129 20.0332L152.114 20.0332L152.114 10.0175L162.129 10.0175V20.0332Z" fill="#0F0F0F"/>
<path d="M547.103 20.0332L537.087 20.0332V10.0175L547.103 10.0175V20.0332Z" fill="#0F0F0F"/>
<path d="M263.535 20.0332L252.893 20.0332V10.0175L263.535 10.0175V20.0332Z" fill="#0F0F0F"/>
<path d="M648.518 20.0332L637.876 20.0332V10.0175L648.518 10.0175V20.0332Z" fill="#0F0F0F"/>
<path d="M101.405 20.0332L91.3896 20.0332L91.3896 10.0175L101.405 10.0175V20.0332Z" fill="#0F0F0F"/>
<path d="M486.388 20.0332L476.372 20.0332V10.0175L486.388 10.0175V20.0332Z" fill="#0F0F0F"/>
<path d="M222.849 20.0332L212.833 20.0332V10.0175L222.849 10.0175V20.0332Z" fill="#0F0F0F"/>
<path d="M607.827 20.0332L597.811 20.0332V10.0175L607.827 10.0175V20.0332Z" fill="#0F0F0F"/>
<path d="M324.259 20.0332L314.243 20.0332V10.0175L324.259 10.0175V20.0332Z" fill="#0F0F0F"/>
<path d="M709.232 20.0332L699.216 20.0332V10.0175L709.232 10.0175V20.0332Z" fill="#0F0F0F"/>
</svg>
