<svg width="375" height="20" viewBox="0 0 375 20" fill="none" xmlns="http://www.w3.org/2000/svg">
<path d="M0 0H9.99906V9.99906H0V0Z" fill="#0F0F0F"/>
<path d="M121.237 0H131.236V9.99906H121.237V0Z" fill="#0F0F0F"/>
<path d="M505.577 0H515.576V9.99906H505.577V0Z" fill="#0F0F0F"/>
<path d="M60.6186 0H70.6177V9.99906H60.6186V0Z" fill="#0F0F0F"/>
<path d="M444.959 0H454.958V9.99906H444.959V0Z" fill="#0F0F0F"/>
<path d="M181.861 0H191.86V9.99906H181.861V0Z" fill="#0F0F0F"/>
<path d="M566.196 0H576.195V9.99906H566.196V0Z" fill="#0F0F0F"/>
<path d="M283.098 0H293.097V9.99906H283.098V0Z" fill="#0F0F0F"/>
<path d="M667.438 0H677.437V9.99906H667.438V0Z" fill="#0F0F0F"/>
<path d="M363.717 0H374.341V9.99906H363.717V0Z" fill="#0F0F0F"/>
<path d="M748.057 0H758.681V9.99906H748.057V0Z" fill="#0F0F0F"/>
<path d="M60.6186 20L50.6195 20V10.0009L60.6186 10.0009V20Z" fill="#0F0F0F"/>
<path d="M444.959 20L434.96 20V10.0009L444.959 10.0009V20Z" fill="#0F0F0F"/>
<path d="M181.861 20L171.862 20V10.0009L181.861 10.0009V20Z" fill="#0F0F0F"/>
<path d="M566.196 20L556.197 20V10.0009L566.196 10.0009V20Z" fill="#0F0F0F"/>
<path d="M283.098 20L273.099 20V10.0009L283.098 10.0009V20Z" fill="#0F0F0F"/>
<path d="M667.438 20L657.439 20V10.0009L667.438 10.0009V20Z" fill="#0F0F0F"/>
<path d="M363.717 20L353.717 20V10.0009L363.717 10.0009V20Z" fill="#0F0F0F"/>
<path d="M748.057 20L738.057 20V10.0009L748.057 10.0009V20Z" fill="#0F0F0F"/>
<path d="M121.237 20L111.238 20L111.238 10.0009L121.237 10.0009V20Z" fill="#0F0F0F"/>
<path d="M505.577 20L495.578 20V10.0009L505.577 10.0009V20Z" fill="#0F0F0F"/>
<path d="M242.474 20L232.475 20V10.0009L242.474 10.0009V20Z" fill="#0F0F0F"/>
<path d="M626.819 20L616.82 20V10.0009L626.819 10.0009V20Z" fill="#0F0F0F"/>
<path d="M343.721 20L333.722 20V10.0009L343.721 10.0009V20Z" fill="#0F0F0F"/>
<path d="M728.057 20L718.057 20V10.0009L728.057 10.0009V20Z" fill="#0F0F0F"/>
<path d="M10 10H19.9991V19.9991H10V10Z" fill="#0F0F0F"/>
<path d="M394.34 10H404.339V19.9991H394.34V10Z" fill="#0F0F0F"/>
<path d="M131.237 10H141.861V19.9991H131.237V10Z" fill="#0F0F0F"/>
<path d="M515.577 10H526.201V19.9991H515.577V10Z" fill="#0F0F0F"/>
<path d="M70.6186 10H80.6177V19.9991H70.6186V10Z" fill="#0F0F0F"/>
<path d="M454.954 10H464.953V19.9991H454.954V10Z" fill="#0F0F0F"/>
<path d="M191.856 10H202.48V19.9991H191.856V10Z" fill="#0F0F0F"/>
<path d="M576.196 10H586.82V19.9991H576.196V10Z" fill="#0F0F0F"/>
<path d="M293.098 10H303.097V19.9991H293.098V10Z" fill="#0F0F0F"/>
<path d="M677.438 10H687.437V19.9991H677.438V10Z" fill="#0F0F0F"/>
<path d="M374.34 10H384.339V19.9991H374.34V10Z" fill="#0F0F0F"/>
<path d="M758.68 10H768.679V19.9991H758.68V10Z" fill="#0F0F0F"/>
<path d="M778.675 10H788.674V19.9991H778.675V10Z" fill="#0F0F0F"/>
<path d="M50.6186 10.6235L40.6195 10.6235V0.624416L50.6186 0.624417V10.6235Z" fill="#0F0F0F"/>
<path d="M434.959 10.6235L424.96 10.6235V0.624416L434.959 0.624417V10.6235Z" fill="#0F0F0F"/>
<path d="M171.856 10.6235L161.857 10.6235V0.624416L171.856 0.624417V10.6235Z" fill="#0F0F0F"/>
<path d="M556.201 10.6235L546.202 10.6235V0.624416L556.201 0.624417V10.6235Z" fill="#0F0F0F"/>
<path d="M273.103 10.6235L263.104 10.6235V0.624416L273.103 0.624417V10.6235Z" fill="#0F0F0F"/>
<path d="M657.438 10.6235L647.439 10.6235V0.624416L657.438 0.624417V10.6235Z" fill="#0F0F0F"/>
<path d="M353.717 10.6235L343.717 10.6235V0.624416L353.717 0.624417V10.6235Z" fill="#0F0F0F"/>
<path d="M738.057 10.6235L728.057 10.6235V0.624416L738.057 0.624417V10.6235Z" fill="#0F0F0F"/>
<path d="M111.242 10.6235L101.243 10.6235L101.243 0.624416L111.242 0.624417V10.6235Z" fill="#0F0F0F"/>
<path d="M495.577 10.6235L485.578 10.6235V0.624416L495.577 0.624417V10.6235Z" fill="#0F0F0F"/>
<path d="M232.479 10.6235L222.48 10.6235V0.624416L232.479 0.624417V10.6235Z" fill="#0F0F0F"/>
<path d="M616.814 10.6235L606.815 10.6235V0.624416L616.814 0.624417V10.6235Z" fill="#0F0F0F"/>
<path d="M333.717 10.6235L323.717 10.6235V0.624416L333.717 0.624417V10.6235Z" fill="#0F0F0F"/>
<path d="M718.057 10.6235L708.057 10.6235V0.624416L718.057 0.624417V10.6235Z" fill="#0F0F0F"/>
<path d="M20 0H30.624V9.99906H20V0Z" fill="#0F0F0F"/>
<path d="M404.335 0H414.959V9.99906H404.335V0Z" fill="#0F0F0F"/>
<path d="M141.861 0H151.86V9.99906H141.861V0Z" fill="#0F0F0F"/>
<path d="M526.201 0H536.2V9.99906H526.201V0Z" fill="#0F0F0F"/>
<path d="M242.474 0H252.474V9.99906H242.474V0Z" fill="#0F0F0F"/>
<path d="M626.819 0H636.818V9.99906H626.819V0Z" fill="#0F0F0F"/>
<path d="M80.6186 0H91.2426V9.99906H80.6186V0Z" fill="#0F0F0F"/>
<path d="M464.959 0H475.583V9.99906H464.959V0Z" fill="#0F0F0F"/>
<path d="M202.484 0H212.483V9.99906H202.484V0Z" fill="#0F0F0F"/>
<path d="M586.819 0H596.818V9.99906H586.819V0Z" fill="#0F0F0F"/>
<path d="M303.098 0H313.722V9.99906H303.098V0Z" fill="#0F0F0F"/>
<path d="M687.433 0H698.057V9.99906H687.433V0Z" fill="#0F0F0F"/>
<path d="M384.34 0H394.339V9.99906H384.34V0Z" fill="#0F0F0F"/>
<path d="M768.68 0H778.679V9.99906H768.68V0Z" fill="#0F0F0F"/>
<path d="M788.675 0H798.674V9.99906H788.675V0Z" fill="#0F0F0F"/>
<path d="M40.6235 20L30.6244 20V10.0009L40.6235 10.0009V20Z" fill="#0F0F0F"/>
<path d="M424.959 20L414.96 20V10.0009L424.959 10.0009V20Z" fill="#0F0F0F"/>
<path d="M161.861 20L151.862 20L151.862 10.0009L161.861 10.0009V20Z" fill="#0F0F0F"/>
<path d="M546.196 20L536.197 20V10.0009L546.196 10.0009V20Z" fill="#0F0F0F"/>
<path d="M263.098 20L252.474 20V10.0009L263.098 10.0009V20Z" fill="#0F0F0F"/>
<path d="M647.443 20L636.819 20V10.0009L647.443 10.0009V20Z" fill="#0F0F0F"/>
<path d="M101.237 20L91.2382 20L91.2382 10.0009L101.237 10.0009V20Z" fill="#0F0F0F"/>
<path d="M485.582 20L475.583 20V10.0009L485.582 10.0009V20Z" fill="#0F0F0F"/>
<path d="M222.479 20L212.48 20V10.0009L222.479 10.0009V20Z" fill="#0F0F0F"/>
<path d="M606.819 20L596.82 20V10.0009L606.819 10.0009V20Z" fill="#0F0F0F"/>
<path d="M323.721 20L313.722 20V10.0009L323.721 10.0009V20Z" fill="#0F0F0F"/>
<path d="M708.057 20L698.057 20V10.0009L708.057 10.0009V20Z" fill="#0F0F0F"/>
</svg>
