<svg width="375" height="10" viewBox="0 0 375 10" fill="none" xmlns="http://www.w3.org/2000/svg">
<path d="M0 0H4.69484V4.69484H0V0Z" fill="#0F0F0F"/>
<path d="M56.9243 0H61.6191V4.69484H56.9243V0Z" fill="#0F0F0F"/>
<path d="M237.383 0H242.078V4.69484H237.383V0Z" fill="#0F0F0F"/>
<path d="M28.4621 0H33.157V4.69484H28.4621V0Z" fill="#0F0F0F"/>
<path d="M208.921 0H213.615V4.69484H208.921V0Z" fill="#0F0F0F"/>
<path d="M85.3887 0H90.0836V4.69484H85.3887V0Z" fill="#0F0F0F"/>
<path d="M265.845 0H270.54V4.69484H265.845V0Z" fill="#0F0F0F"/>
<path d="M132.922 0H137.617V4.69484H132.922V0Z" fill="#0F0F0F"/>
<path d="M313.381 0H318.076V4.69484H313.381V0Z" fill="#0F0F0F"/>
<path d="M170.775 0H175.763V4.69484H170.775V0Z" fill="#0F0F0F"/>
<path d="M351.234 0H356.222V4.69484H351.234V0Z" fill="#0F0F0F"/>
<path d="M28.4621 9.39056L23.7673 9.39056V4.69572L28.4621 4.69572V9.39056Z" fill="#0F0F0F"/>
<path d="M208.921 9.39056L204.226 9.39056V4.69572L208.921 4.69572V9.39056Z" fill="#0F0F0F"/>
<path d="M85.3887 9.39056L80.6939 9.39056V4.69572L85.3887 4.69572V9.39056Z" fill="#0F0F0F"/>
<path d="M265.845 9.39056L261.15 9.39056V4.69572L265.845 4.69572V9.39056Z" fill="#0F0F0F"/>
<path d="M132.922 9.39056L128.228 9.39056V4.69572L132.922 4.69572V9.39056Z" fill="#0F0F0F"/>
<path d="M313.381 9.39056L308.686 9.39056V4.69572L313.381 4.69572V9.39056Z" fill="#0F0F0F"/>
<path d="M170.775 9.39056L166.08 9.39056V4.69572L170.775 4.69572V9.39056Z" fill="#0F0F0F"/>
<path d="M351.234 9.39056L346.539 9.39056V4.69572L351.234 4.69572V9.39056Z" fill="#0F0F0F"/>
<path d="M56.9243 9.39056L52.2294 9.39056L52.2294 4.69572L56.9243 4.69572V9.39056Z" fill="#0F0F0F"/>
<path d="M237.383 9.39056L232.688 9.39056V4.69572L237.383 4.69572V9.39056Z" fill="#0F0F0F"/>
<path d="M113.849 9.39056L109.154 9.39056V4.69572L113.849 4.69572V9.39056Z" fill="#0F0F0F"/>
<path d="M294.309 9.39056L289.614 9.39056V4.69572L294.309 4.69572V9.39056Z" fill="#0F0F0F"/>
<path d="M161.387 9.39056L156.692 9.39056V4.69572L161.387 4.69572V9.39056Z" fill="#0F0F0F"/>
<path d="M341.843 9.39056L337.148 9.39056V4.69572L341.843 4.69572V9.39056Z" fill="#0F0F0F"/>
<path d="M4.69528 4.69528H9.39012V9.39012H4.69528V4.69528Z" fill="#0F0F0F"/>
<path d="M185.154 4.69528H189.849V9.39012H185.154V4.69528Z" fill="#0F0F0F"/>
<path d="M61.6196 4.69528H66.6078V9.39012H61.6196V4.69528Z" fill="#0F0F0F"/>
<path d="M242.078 4.69528H247.066V9.39012H242.078V4.69528Z" fill="#0F0F0F"/>
<path d="M33.1574 4.69528H37.8523V9.39012H33.1574V4.69528Z" fill="#0F0F0F"/>
<path d="M213.614 4.69528H218.308V9.39012H213.614V4.69528Z" fill="#0F0F0F"/>
<path d="M90.0817 4.69528H95.07V9.39012H90.0817V4.69528Z" fill="#0F0F0F"/>
<path d="M270.54 4.69528H275.528V9.39012H270.54V4.69528Z" fill="#0F0F0F"/>
<path d="M137.618 4.69528H142.313V9.39012H137.618V4.69528Z" fill="#0F0F0F"/>
<path d="M318.076 4.69528H322.771V9.39012H318.076V4.69528Z" fill="#0F0F0F"/>
<path d="M175.763 4.69528H180.458V9.39012H175.763V4.69528Z" fill="#0F0F0F"/>
<path d="M356.222 4.69528H360.916V9.39012H356.222V4.69528Z" fill="#0F0F0F"/>
<path d="M365.61 4.69528H370.305V9.39012H365.61V4.69528Z" fill="#0F0F0F"/>
<path d="M23.7669 4.98802L19.072 4.98802V0.293181L23.7669 0.293182V4.98802Z" fill="#0F0F0F"/>
<path d="M204.225 4.98802L199.53 4.98802V0.293181L204.225 0.293182V4.98802Z" fill="#0F0F0F"/>
<path d="M80.6911 4.98802L75.9963 4.98802V0.293181L80.6911 0.293182V4.98802Z" fill="#0F0F0F"/>
<path d="M261.152 4.98802L256.457 4.98802V0.293181L261.152 0.293182V4.98802Z" fill="#0F0F0F"/>
<path d="M128.229 4.98802L123.535 4.98802V0.293181L128.229 0.293182V4.98802Z" fill="#0F0F0F"/>
<path d="M308.686 4.98802L303.991 4.98802V0.293181L308.686 0.293182V4.98802Z" fill="#0F0F0F"/>
<path d="M166.08 4.98802L161.385 4.98802V0.293181L166.08 0.293182V4.98802Z" fill="#0F0F0F"/>
<path d="M346.538 4.98802L341.843 4.98802V0.293181L346.538 0.293182V4.98802Z" fill="#0F0F0F"/>
<path d="M52.2313 4.98802L47.5364 4.98802L47.5364 0.293181L52.2313 0.293182V4.98802Z" fill="#0F0F0F"/>
<path d="M232.687 4.98802L227.993 4.98802V0.293181L232.687 0.293182V4.98802Z" fill="#0F0F0F"/>
<path d="M109.156 4.98802L104.461 4.98802V0.293181L109.156 0.293182V4.98802Z" fill="#0F0F0F"/>
<path d="M289.612 4.98802L284.917 4.98802V0.293181L289.612 0.293182V4.98802Z" fill="#0F0F0F"/>
<path d="M156.689 4.98802L151.994 4.98802V0.293181L156.689 0.293182V4.98802Z" fill="#0F0F0F"/>
<path d="M337.148 4.98802L332.453 4.98802V0.293181L337.148 0.293182V4.98802Z" fill="#0F0F0F"/>
<path d="M9.39056 0H14.3788V4.69484H9.39056V0Z" fill="#0F0F0F"/>
<path d="M189.847 0H194.835V4.69484H189.847V0Z" fill="#0F0F0F"/>
<path d="M66.6076 0H71.3024V4.69484H66.6076V0Z" fill="#0F0F0F"/>
<path d="M247.066 0H251.761V4.69484H247.066V0Z" fill="#0F0F0F"/>
<path d="M113.849 0H118.543V4.69484H113.849V0Z" fill="#0F0F0F"/>
<path d="M294.309 0H299.004V4.69484H294.309V0Z" fill="#0F0F0F"/>
<path d="M37.8527 0H42.841V4.69484H37.8527V0Z" fill="#0F0F0F"/>
<path d="M218.311 0H223.299V4.69484H218.311V0Z" fill="#0F0F0F"/>
<path d="M95.072 0H99.7669V4.69484H95.072V0Z" fill="#0F0F0F"/>
<path d="M275.528 0H280.223V4.69484H275.528V0Z" fill="#0F0F0F"/>
<path d="M142.313 0H147.301V4.69484H142.313V0Z" fill="#0F0F0F"/>
<path d="M322.769 0H327.757V4.69484H322.769V0Z" fill="#0F0F0F"/>
<path d="M180.458 0H185.153V4.69484H180.458V0Z" fill="#0F0F0F"/>
<path d="M360.917 0H365.612V4.69484H360.917V0Z" fill="#0F0F0F"/>
<path d="M370.305 0H375V4.69484H370.305V0Z" fill="#0F0F0F"/>
<path d="M19.0739 9.39056L14.379 9.39056V4.69572L19.0739 4.69572V9.39056Z" fill="#0F0F0F"/>
<path d="M199.53 9.39056L194.835 9.39056V4.69572L199.53 4.69572V9.39056Z" fill="#0F0F0F"/>
<path d="M75.9981 9.39056L71.3033 9.39056L71.3033 4.69572L75.9981 4.69572V9.39056Z" fill="#0F0F0F"/>
<path d="M256.454 9.39056L251.759 9.39056V4.69572L256.454 4.69572V9.39056Z" fill="#0F0F0F"/>
<path d="M123.532 9.39056L118.544 9.39056V4.69572L123.532 4.69572V9.39056Z" fill="#0F0F0F"/>
<path d="M303.993 9.39056L299.004 9.39056V4.69572L303.993 4.69572V9.39056Z" fill="#0F0F0F"/>
<path d="M47.5337 9.39056L42.8389 9.39056L42.8389 4.69572L47.5337 4.69572V9.39056Z" fill="#0F0F0F"/>
<path d="M227.994 9.39056L223.3 9.39056V4.69572L227.994 4.69572V9.39056Z" fill="#0F0F0F"/>
<path d="M104.46 9.39056L99.7654 9.39056V4.69572L104.46 4.69572V9.39056Z" fill="#0F0F0F"/>
<path d="M284.919 9.39056L280.224 9.39056V4.69572L284.919 4.69572V9.39056Z" fill="#0F0F0F"/>
<path d="M151.996 9.39056L147.301 9.39056V4.69572L151.996 4.69572V9.39056Z" fill="#0F0F0F"/>
<path d="M332.452 9.39056L327.758 9.39056V4.69572L332.452 4.69572V9.39056Z" fill="#0F0F0F"/>
</svg>
