<svg width="335" height="113" viewBox="0 0 335 113" fill="none" xmlns="http://www.w3.org/2000/svg">
<path d="M17.4849 112.425C16.3964 112.425 15.4892 112.039 14.7635 111.268L1.15659 97.661C0.38553 96.9353 0 96.0282 0 94.9396V23.4351C0 22.3011 0.566956 21.7342 1.70087 21.7342H20.9547C22.0886 21.7342 22.6556 22.3011 22.6556 23.4351V94.1912H37.8954V23.4351C37.8954 22.3011 38.4623 21.7342 39.5962 21.7342H58.8501C59.984 21.7342 60.5509 22.3011 60.5509 23.4351V94.9396C60.5509 96.0282 60.1654 96.9353 59.3943 97.661L45.7874 111.268C45.0617 112.039 44.1546 112.425 43.066 112.425H17.4849Z" fill="#0F0F0F"/>
<path d="M69.1138 112.425C67.9798 112.425 67.4129 111.858 67.4129 110.724V23.4351C67.4129 22.3011 67.9798 21.7342 69.1138 21.7342H116.534C117.668 21.7342 118.235 22.3011 118.235 23.4351V38.1306C118.235 39.2645 117.668 39.8314 116.534 39.8314H90.0685V59.1533H114.221C115.355 59.1533 115.922 59.7203 115.922 60.8542V73.3045C115.922 74.4385 115.355 75.0054 114.221 75.0054H90.0685V94.2593H116.534C117.668 94.2593 118.235 94.8262 118.235 95.9601V110.724C118.235 111.858 117.668 112.425 116.534 112.425H69.1138ZM86.8028 18.4005C85.941 18.8087 85.3287 18.6046 84.9659 17.7882L82.5846 12.6856C82.2671 11.8691 82.5166 11.1888 83.333 10.6445L99.3892 0.235207C100.206 -0.263716 100.818 0.0311013 101.226 1.11966L105.104 9.21579C105.467 9.98685 105.218 10.5992 104.356 11.0527L86.8028 18.4005Z" fill="#0F0F0F"/>
<path d="M126.693 112.425C125.56 112.425 124.993 111.858 124.993 110.724V23.4351C124.993 22.3011 125.56 21.7342 126.693 21.7342H145.947C147.081 21.7342 147.648 22.3011 147.648 23.4351V94.2593H164.793C165.927 94.2593 166.494 94.8262 166.494 95.9601V110.724C166.494 111.858 165.927 112.425 164.793 112.425H126.693Z" fill="#0F0F0F"/>
<path d="M185.308 112.425C184.264 112.425 183.357 112.039 182.586 111.268L168.979 97.661C168.208 96.9353 167.823 96.0282 167.823 94.9396V39.1511C167.823 38.1079 168.208 37.2008 168.979 36.4297L182.586 22.8228C183.357 22.097 184.264 21.7342 185.308 21.7342H212.045C213.134 21.7342 214.041 22.097 214.767 22.8228L228.374 36.4297C229.145 37.2008 229.53 38.1079 229.53 39.1511V94.9396C229.53 96.0282 229.145 96.9353 228.374 97.661L214.767 111.268C214.041 112.039 213.134 112.425 212.045 112.425H185.308ZM193.336 94.2593H204.017C205.922 94.2593 206.875 92.9893 206.875 90.4493V43.7094C206.875 41.1241 205.922 39.8314 204.017 39.8314H193.336C191.476 39.8314 190.546 41.1241 190.546 43.7094V90.4493C190.546 92.9893 191.476 94.2593 193.336 94.2593Z" fill="#0F0F0F"/>
<path d="M262.016 112.425C260.973 112.425 260.065 112.13 259.294 111.54L248.205 101.403L236.979 86.7754C236.48 86.1404 236.162 85.7549 236.026 85.6188C235.89 85.4374 235.822 85.0292 235.822 84.3942V49.6965C235.822 49.0615 235.89 48.6533 236.026 48.4719C236.208 48.2904 236.525 47.9049 236.979 47.3153L247.388 33.8444L259.294 22.6186C259.793 22.2104 260.179 21.961 260.451 21.8703C260.768 21.7795 261.29 21.7342 262.016 21.7342H278.82C279.954 21.7342 280.521 22.3011 280.521 23.4351V34.3206C280.521 34.6835 280.476 35.069 280.385 35.4772C280.34 35.8401 280.113 36.1576 279.705 36.4297L266.914 45.2062L258.546 55.9557V78.2031L267.05 88.9525L279.705 97.661C280.068 97.8878 280.294 98.1599 280.385 98.4774C280.476 98.7949 280.521 99.1351 280.521 99.4979V110.724C280.521 111.858 279.954 112.425 278.82 112.425H262.016Z" fill="#0F0F0F"/>
<path d="M285.879 112.425C284.745 112.425 284.178 111.858 284.178 110.724V23.4351C284.178 22.3011 284.745 21.7342 285.879 21.7342H333.299C334.433 21.7342 335 22.3011 335 23.4351V38.1306C335 39.2645 334.433 39.8314 333.299 39.8314H306.834V59.1533H330.986C332.12 59.1533 332.687 59.7203 332.687 60.8542V73.3045C332.687 74.4385 332.12 75.0054 330.986 75.0054H306.834V94.2593H333.299C334.433 94.2593 335 94.8262 335 95.9601V110.724C335 111.858 334.433 112.425 333.299 112.425H285.879Z" fill="#0F0F0F"/>
</svg>
